<?xml version="1.0" encoding="UTF-8"?>
<svg id="Layer_1" data-name="Layer 1" xmlns="http://www.w3.org/2000/svg" viewBox="0 0 858.55 451.56">
  <defs>
    <style>
      .cls-1 {
        font-family: ArialMT, Arial;
        font-size: 92.15px;
      }

      .cls-2 {
        font-family: VladimirScript, 'Vladimir Script';
        font-size: 55.72px;
      }
    </style>
  </defs>
  <g id="B">
    <polygon points="127.02 249.67 64.27 286.34 64.27 28.82 127.02 28.82 127.02 249.67"/>
    <polygon points="116.42 333.6 75.68 301.01 199.55 219.51 252.52 252.93 116.42 333.6"/>
    <polygon points="64.49 29.11 132.25 0 119.68 57.34 83.05 89 64.49 29.11"/>
    <polygon points="198.95 82.08 258.22 54.08 263.11 111.13 198.73 157.58 198.95 82.08"/>
    <polygon points="265.62 188.56 252.7 252.82 198.73 219.51 198.55 157.68 265.62 188.56"/>
    <polygon points="118.87 60.6 131.02 .28 258.37 54.01 200.36 81.79 118.87 60.6"/>
  </g>
  <g id="I">
    <polygon points="332.91 333.37 268.53 276.35 285.98 190.6 323.05 148.71 332.91 333.37"/>
    <polygon points="322.99 71.09 333.43 104.78 368.69 104.3 339.88 124.63 351.24 158.02 322.99 136.9 294.74 158.02 306.1 124.63 277.29 104.3 312.55 104.78 322.99 71.09"/>
  </g>
  <g id="L">
    <polygon points="415.47 271.74 354.32 331.37 375.21 112.45 433.55 71.56 415.47 271.74"/>
    <polygon points="361.74 333.56 416.9 280.18 524.55 276.2 495.19 333.56 361.74 333.56"/>
  </g>
  <g id="L2">
    <polygon points="600.47 275.74 539.32 335.37 560.21 116.45 618.55 75.56 600.47 275.74"/>
    <polygon points="546.74 337.56 601.9 284.18 709.55 280.2 680.19 337.56 546.74 337.56"/>
  </g>
  <g id="Y">
    <polygon points="736.86 195 636.62 141.98 672.14 86.13 777.47 169.17 736.86 195"/>
    <polygon points="786.06 333.84 728.28 314.57 737.27 194.98 778.44 169 786.06 333.84"/>
    <polygon points="784.78 169.46 755.25 146.34 806.61 78.28 858.55 91.68 784.78 169.46"/>
  </g>
  <text class="cls-2" transform="translate(47.41 266.24) rotate(-89.21)"><tspan x="0" y="0">Since 1977</tspan></text>
  <text class="cls-1" transform="translate(472.55 421.64) scale(1.28 1)"><tspan x="0" y="0">BEER</tspan></text>
</svg>