<?xml version="1.0" encoding="UTF-8"?>
<svg id="mintleaves" xmlns="http://www.w3.org/2000/svg" version="1.1" viewBox="0 0 959.4 631.4">
  <!-- Generator: Adobe Illustrator 29.4.0, SVG Export Plug-In . SVG Version: 2.1.0 Build 152)  -->
  <defs>
    <style>
      .st0 {
        fill: #088744;
      }

      .st1 {
        fill: #65ba2d;
      }
      #left_x5F_mintleaf {
    transition: all 0.7s ease;
    transform-origin: 25%;
  }
      #right_x5F_mintleaf {
    transition: all 0.7s ease;
    transform-origin: 75%;
  }

  #mintleaves:hover #left_x5F_mintleaf {
    transform: rotate(-360deg);
  }
   #mintleaves:hover #right_x5F_mintleaf {
    transform: rotate(360deg);
  }
    </style>
    <script>
    const mintleaves = document.querySelector("#mintleaves");

    function logId() {
	  console.log(this.id)
    }

    mintleaves.addEventListener("click", logId);
    </script>
  </defs>
  <g id="left_x5F_mintleaf">
    <path class="st0" d="M198.5,414.6c-15.8-35.5,6.4-30.1,18.4-28,1.8.3,3-1.9,1.6-3.3-48-46.8-12.4-42.7-2-40.8s1.4-.8.9-1.5c-44.1-54.4-8.1-47.4,6.8-42.9s2.7-1.4,1.6-2.6c-45.8-51.2-9.5-47.8,2.7-45.5,1.2.2,2-1.2,1.2-2.1-39.2-48-8.1-45.3,1.7-43.5,1.1.2,1.9-.9,1.4-1.9-27.3-54.9,6.1-46.7,13.7-44.3s1.2-.4,1.1-1c-5.2-22.6,6.9-38,12.6-43.8s4.3-2.5,6.7-1.8c18.8,5.7,24.6,30.1,25.8,36.7s.9.8,1.2.3c5.2-7.5,9.8-11.5,13.3-13.5s7.8-1.4,10.5,1.4c15.4,16.2,6.7,43.9,3.4,52.6s.5,1,.9.6c9.7-9.9,17.4-13.3,22.2-14.4s6.3.8,7.7,3.8c8.2,17.2,1.3,34.4-2.6,41.8-.5.9.6,1.9,1.4,1.3,21.3-14,28.4-6.8,28.4-6.8,11.1,9.3-.3,38.3-4.1,47.1s.4.8.7.4c10.3-11.2,20.3-14,26.1-14.6s5.7,1.7,6.4,4.6c5.9,25.3-13.4,51.3-13.4,51.3,4.4-7.8,15.9-12.5,22.4-14.6,3.1-1,6.5.4,8,3.3,7.9,15.3.5,38.9-3.5,49.3s.5.9.8.4c6.6-9.3,14.8-12.8,20-14.1s6,.7,7.3,3.6c18.6,42.2-17.2,96.3-17.2,96.3-62.7,76.9-139.4,60-176.3,45.3-12.5-5-23.8-12.6-33.2-22.4h0c-10.4-10.8-18.9-23.2-25-36.8Z"/>
    <path class="st1" d="M393.5,355.4c-11.1,31-38.6,88.4-66.9,105.6,12-10.2,20.4-23.7,28.8-36.9,12.9-20.8,26.4-46.9,38.1-68.7h0Z"/>
    <path class="st1" d="M372.5,298.4c-11.1,31-38.6,88.4-66.9,105.6,12-10.2,20.4-23.7,28.8-36.9,12.9-20.8,26.4-46.9,38.1-68.7h0Z"/>
    <path class="st1" d="M341.3,259.4c-7.8,23.7-28.6,67-50.4,79.6,8.8-7.9,15-18.1,21.3-28.1,10.3-16.8,19.3-34.3,29.1-51.5h0Z"/>
    <path class="st1" d="M319.6,208.4c-5.6,18.8-21.5,52-39,61.6,8.8-8.6,14.5-19.4,20.7-29.8,6.1-10.6,11.9-21.3,18.3-31.8h0Z"/>
    <path class="st1" d="M305.8,153.4c-4.7,15.2-17.3,41.7-31.4,49.6,5.4-5.1,9.2-11.4,13.1-17.6,6.4-10.4,12.1-21.5,18.4-32h0Z"/>
    <path class="st1" d="M375.5,527.4c-36.4-13.5-57.7-81.3-67.7-116.2-21.8-79.7-32-162.3-38.1-244.6-1.2-18.3-2.3-36.6-2.6-55,3.8,36.5,8.1,72.8,12.8,109.1,9.4,65.3,34.9,279.8,95.7,306.6h0Z"/>
    <path class="st1" d="M233,408.6c30.9,21,60.8,43.9,94.3,60.7,2.3,1,4.6,2,6.9,3-32.8-8-76.5-40.5-101.2-63.7h0Z"/>
    <path class="st1" d="M224.8,359.3c14.2,9.1,27.9,18.6,42.1,27.6,14.1,9,28.2,18,43.6,24.6-2-.5-4.1-1-6.2-1.5-14.1-4.4-27.2-11.8-39.6-19.7-14.1-9.2-27.7-19.4-39.9-31h0Z"/>
    <path class="st1" d="M229.7,302.6c15,9.3,29.4,19.2,44.3,28.5,9,5.5,17.8,11,27.5,15.2-1.7-.4-3.5-.8-5.2-1.2-23.2-7.2-49.2-25.7-66.6-42.6h0Z"/>
    <path class="st1" d="M232.9,235.7c17.2,13.2,32.8,28.3,51.4,39.5-18-5.7-39.4-25.1-51.4-39.5h0Z"/>
    <path class="st1" d="M230,175.7c15.3,8.9,29.3,19.8,45.3,27.6-15.4-2.8-34.3-16.6-45.3-27.6h0Z"/>
  </g>
  <g id="right_x5F_mintleaf">
    <path class="st0" d="M716,423.1c16.9-35-5.5-30.2-17.6-28.5-1.9.3-2.9-2-1.5-3.3,49.5-45.3,13.7-42.3,3.3-40.7-.9.1-1.4-.9-.8-1.5,45.8-53,9.5-47.1-5.5-43.1s-2.6-1.5-1.5-2.6c47.4-49.8,10.9-47.5-1.4-45.6-1.2.2-2-1.2-1.2-2.2,40.7-46.8,9.5-45-.4-43.5-1.1.2-1.9-1-1.4-2,29-54-4.7-46.9-12.3-44.7s-1.2-.4-1.1-1c5.8-22.4-5.7-38.1-11.3-44.2s-4.2-2.6-6.6-2c-19,5.1-25.5,29.3-26.9,35.9-.1.6-.9.7-1.2.2-5-7.7-9.5-11.8-12.9-13.9-3.3-2.1-7.7-1.7-10.5,1.1-15.9,15.8-8.1,43.6-5,52.4s-.5,1-.9.6c-9.4-10.1-17-13.8-21.7-15.1s-6.4.6-7.8,3.5c-8.8,17-2.4,34.3,1.3,41.9s-.6,1.8-1.5,1.2c-20.9-14.6-28.1-7.6-28.1-7.6-11.4,9-.9,38.3,2.6,47.2s-.4.8-.7.4c-10-11.6-19.9-14.6-25.6-15.4s-5.8,1.5-6.5,4.4c-6.7,25.1,11.8,51.7,11.8,51.7-4.1-7.9-15.5-12.9-22-15.2s-6.5.2-8.1,3.1c-8.3,15.1-1.7,38.9,2,49.3s-.5.8-.8.4c-6.3-9.5-14.4-13.2-19.6-14.7s-6.1.6-7.4,3.3c-19.9,41.6,14.3,96.8,14.3,96.8,60.3,78.8,137.5,64.3,174.8,50.7,12.7-4.6,24.2-11.9,33.8-21.3h0c10.7-10.4,19.6-22.6,26.1-36Z"/>
    <path class="st1" d="M522.9,357.9c11,22.2,23.7,48.6,36,69.8,7.9,13.4,15.9,27.2,27.6,37.8-27.7-18.1-53.4-76.1-63.6-107.6h0Z"/>
    <path class="st1" d="M545.6,301.6c11,22.2,23.7,48.6,36,69.8,7.9,13.4,15.9,27.2,27.6,37.8-27.7-18.1-53.4-76.1-63.6-107.6h0Z"/>
    <path class="st1" d="M578,263.6c9.3,17.5,17.7,35.3,27.5,52.4,5.9,10.1,11.8,20.5,20.4,28.7-21.4-13.3-40.9-57.1-47.9-81.1h0Z"/>
    <path class="st1" d="M601.3,213.3c6,10.7,11.5,21.6,17.3,32.3,5.9,10.6,11.3,21.6,19.8,30.4-17.2-10.1-32.1-43.8-37.1-62.8h0Z"/>
    <path class="st1" d="M616.8,158.7c5.9,10.7,11.3,21.9,17.4,32.5,3.7,6.3,7.3,12.8,12.5,18-13.8-8.3-25.6-35.2-29.9-50.5h0Z"/>
    <path class="st1" d="M535.6,530.4c61.5-24.9,93.6-238.2,105-303.5,5.8-36.1,11.2-72.4,16.1-108.7-.9,18.3-2.6,36.6-4.3,54.8-8.6,82.1-21.3,164.3-45.6,243.3-11,34.5-34.5,101.7-71.3,114.1h0Z"/>
    <path class="st1" d="M681.7,416c-25.3,22.4-70,53.6-103.1,60.6,2.3-1,4.6-1.9,7-2.8,34-15.8,64.5-37.8,96.1-57.8h0Z"/>
    <path class="st1" d="M691.4,367c-12.6,11.2-26.4,21-40.8,29.7-12.7,7.6-25.9,14.5-40.2,18.5-2.1.5-4.1.9-6.2,1.3,15.7-6.1,30-14.7,44.4-23.3,14.4-8.6,28.5-17.7,42.9-26.3h0Z"/>
    <path class="st1" d="M688.2,310.1c-18,16.3-44.4,34.1-67.9,40.5-1.7.4-3.5.7-5.2,1,9.8-4,18.9-9.2,28-14.4,15.2-8.9,29.9-18.4,45.1-27.2h0Z"/>
    <path class="st1" d="M687.1,243.2c-12.5,14-34.5,32.7-52.6,37.9,19-10.6,35.1-25.2,52.6-37.9h0Z"/>
    <path class="st1" d="M691.8,183.3c-11.3,10.7-30.6,23.9-46.1,26.2,16.2-7.3,30.5-17.7,46.1-26.2h0Z"/>
  </g>
</svg>