<?xml version="1.0" encoding="UTF-8"?>
<svg id="Layer_1" xmlns="http://www.w3.org/2000/svg" version="1.1" viewBox="0 0 943.3 795.1">
  <!-- Generator: Adobe Illustrator 29.4.0, SVG Export Plug-In . SVG Version: 2.1.0 Build 152)  -->
  <defs>
    <style>
      .st0 {
        fill: #129b18;
      }

      .st1 {
        fill: #d64f41;
      }

      .st2 {
        fill: #1c7a23;
      }

      .st3 {
        fill: #5b4004;
      }

      .st4 {
        fill: #d86e5d;
      }
      #peach:hover {
        transform: rotate(360deg);
        transition: transform 1s;
        transform-origin: center;
      }
    </style>
    <script>
      const peach = document.querySelector("#peach");

      function logId() {
	    console.log(this.id)
      }
      peach.addEventListener("click", logId);
      </script>
  </defs>
  <path id="peachstem" class="st3" d="M479,196.6l2.4,48.1s-7.1-1.6-18.1-7.1l-4.6-49.8c-.8-8.3,3.5-16.4,11-20.1,4.5-2.2,9.9-2.7,16,1.1s3,3.4,2.9,5.7c-.3,4.1-1.7,11-6.9,15.8s-2.7,3.9-2.6,6.3Z"/>
  <g id="peach">
    <path class="st1" d="M463.7,244s-157.3-65.3-222.6,100.6c0,0-72.3,183.4,214,289.8,5.7,2.1,12,2.3,17.9.5,40.1-12.4,197.1-71.1,221.7-231.5,0,0,23.4-214.1-231-159.4Z"/>
    <path class="st4" d="M472.7,241s-157.3-65.3-222.6,100.6c0,0-73.7,187.1,222.6,293,0,0,202.8-50,231-234.1,0,0,23.4-214.1-231-159.4Z"/>
    <path class="st1" d="M473.1,257.6c31.9,36.2,47.6,89.2,49.4,136.8,2.5,63.4-17.2,126.7-49.4,180.8,17.8-41.5,32.1-84.4,37.8-129.1,8.4-64.4-1.7-133.5-37.8-188.4h0Z"/>
  </g>
  <g id="right_x5F_peachleaf">
    <path class="st2" d="M631.2,180.4s-67.1,93.6-179.6,62.3c0,0,73.8-94.4,180.8-66"/>
    <path class="st0" d="M502.1,235.8s29.1-7.3,63.1-41.3"/>
  </g>
  <g id="right_x5F_peachleaf1" data-name="right_x5F_peachleaf">
    <path class="st2" d="M299.5,180.9s110.3-33.1,180.2,60.4c0,0-116.1,29.6-183.5-58.3"/>
    <path class="st0" d="M377.1,205.7s25,16.6,73,18.9"/>
  </g>
</svg>